REM DIRINDEX 1\4,1\2\5,1\2\6,1\3\7,1\3\8
REM DIRNAME folder01,folder02,folder03,folder04,folder05,folder06,folder07,folder08
TITLE ""
FILE "023_Day12_Check2_Phrases.mp3" MP3
  TRACK 01 AUDIO
    TITLE "0:"
    INDEX 01 00:00:00
  TRACK 02 AUDIO
    TITLE "4:cjc124_0727"
    INDEX 01 00:00:31
  TRACK 03 AUDIO
    TITLE "0:"
    INDEX 01 00:01:44
  TRACK 04 AUDIO
    TITLE "5:cjc124_0728"
    INDEX 01 00:02:00
  TRACK 05 AUDIO
    TITLE "0:"
    INDEX 01 00:03:31
  TRACK 06 AUDIO
    TITLE "6:cjc124_0729"
    INDEX 01 00:03:63
  TRACK 07 AUDIO
    TITLE "0:"
    INDEX 01 00:04:74
  TRACK 08 AUDIO
    TITLE "5:cjc124_0730"
    INDEX 01 00:05:36
  TRACK 09 AUDIO
    TITLE "0:"
    INDEX 01 00:07:17
  TRACK 10 AUDIO
    TITLE "6:cjc124_0731"
    INDEX 01 00:07:35
  TRACK 11 AUDIO
    TITLE "0:"
    INDEX 01 00:09:26
  TRACK 12 AUDIO
    TITLE "5:cjc124_0732"
    INDEX 01 00:09:65
  TRACK 13 AUDIO
    TITLE "0:"
    INDEX 01 00:11:23
  TRACK 14 AUDIO
    TITLE "6:cjc124_0733"
    INDEX 01 00:11:40
  TRACK 15 AUDIO
    TITLE "0:"
    INDEX 01 00:13:20
  TRACK 16 AUDIO
    TITLE "5:cjc124_0734"
    INDEX 01 00:13:59
  TRACK 17 AUDIO
    TITLE "0:"
    INDEX 01 00:15:50
  TRACK 18 AUDIO
    TITLE "6:cjc124_0735"
    INDEX 01 00:15:66
  TRACK 19 AUDIO
    TITLE "0:"
    INDEX 01 00:17:35
  TRACK 20 AUDIO
    TITLE "5:cjc124_0736"
    INDEX 01 00:17:74
  TRACK 21 AUDIO
    TITLE "0:"
    INDEX 01 00:19:44
  TRACK 22 AUDIO
    TITLE "6:cjc124_0737"
    INDEX 01 00:19:63
  TRACK 23 AUDIO
    TITLE "0:"
    INDEX 01 00:21:29
  TRACK 24 AUDIO
    TITLE "5:cjc124_0738"
    INDEX 01 00:21:68
  TRACK 25 AUDIO
    TITLE "0:"
    INDEX 01 00:23:32
  TRACK 26 AUDIO
    TITLE "6:cjc124_0739"
    INDEX 01 00:23:71
  TRACK 27 AUDIO
    TITLE "0:"
    INDEX 01 00:25:37
  TRACK 28 AUDIO
    TITLE "5:cjc124_0740"
    INDEX 01 00:26:01
  TRACK 29 AUDIO
    TITLE "0:"
    INDEX 01 00:28:08
  TRACK 30 AUDIO
    TITLE "6:cjc124_0741"
    INDEX 01 00:28:25
  TRACK 31 AUDIO
    TITLE "0:"
    INDEX 01 00:29:74
  TRACK 32 AUDIO
    TITLE "5:cjc124_0742"
    INDEX 01 00:30:38
  TRACK 33 AUDIO
    TITLE "0:"
    INDEX 01 00:32:11
  TRACK 34 AUDIO
    TITLE "6:cjc124_0743"
    INDEX 01 00:32:29
  TRACK 35 AUDIO
    TITLE "0:"
    INDEX 01 00:34:08
  TRACK 36 AUDIO
    TITLE "5:cjc124_0744"
    INDEX 01 00:34:45
  TRACK 37 AUDIO
    TITLE "0:"
    INDEX 01 00:36:44
  TRACK 38 AUDIO
    TITLE "6:cjc124_0745"
    INDEX 01 00:36:58
  TRACK 39 AUDIO
    TITLE "0:"
    INDEX 01 00:38:73
  TRACK 40 AUDIO
    TITLE "5:cjc124_0746"
    INDEX 01 00:39:37
  TRACK 41 AUDIO
    TITLE "0:"
    INDEX 01 00:41:14
  TRACK 42 AUDIO
    TITLE "6:cjc124_0747"
    INDEX 01 00:41:34
  TRACK 43 AUDIO
    TITLE "0:"
    INDEX 01 00:43:05
  TRACK 44 AUDIO
    TITLE "5:cjc124_0748"
    INDEX 01 00:43:46
  TRACK 45 AUDIO
    TITLE "0:"
    INDEX 01 00:45:26
  TRACK 46 AUDIO
    TITLE "6:cjc124_0749"
    INDEX 01 00:45:61
  TRACK 47 AUDIO
    TITLE "0:"
    INDEX 01 00:47:30
  TRACK 48 AUDIO
    TITLE "5:cjc124_0750"
    INDEX 01 00:47:68
  TRACK 49 AUDIO
    TITLE "0:"
    INDEX 01 00:49:49
  TRACK 50 AUDIO
    TITLE "6:cjc124_0751"
    INDEX 01 00:49:67
  TRACK 51 AUDIO
    TITLE "0:"
    INDEX 01 00:51:50
  TRACK 52 AUDIO
    TITLE "5:cjc124_0752"
    INDEX 01 00:52:14
  TRACK 53 AUDIO
    TITLE "0:"
    INDEX 01 00:53:37
  TRACK 54 AUDIO
    TITLE "6:cjc124_0753"
    INDEX 01 00:53:74
  TRACK 55 AUDIO
    TITLE "0:"
    INDEX 01 00:55:18
  TRACK 56 AUDIO
    TITLE "5:cjc124_0754"
    INDEX 01 00:55:55
  TRACK 57 AUDIO
    TITLE "0:"
    INDEX 01 00:58:07
  TRACK 58 AUDIO
    TITLE "6:cjc124_0755"
    INDEX 01 00:58:36
  TRACK 59 AUDIO
    TITLE "0:"
    INDEX 01 01:01:23
  TRACK 60 AUDIO
    TITLE "5:cjc124_0756"
    INDEX 01 01:01:62
  TRACK 61 AUDIO
    TITLE "0:"
    INDEX 01 01:03:71
  TRACK 62 AUDIO
    TITLE "6:cjc124_0757"
    INDEX 01 01:04:13
  TRACK 63 AUDIO
    TITLE "0:"
    INDEX 01 01:06:26
  TRACK 64 AUDIO
    TITLE "5:cjc124_0758"
    INDEX 01 01:06:67
  TRACK 65 AUDIO
    TITLE "0:"
    INDEX 01 01:08:58
  TRACK 66 AUDIO
    TITLE "6:cjc124_0759"
    INDEX 01 01:09:01
  TRACK 67 AUDIO
    TITLE "0:"
    INDEX 01 01:10:33
